<svg width="533" height="162" viewBox="0 0 533 162" fill="none" xmlns="http://www.w3.org/2000/svg">
<g clip-path="url(#clip0_64_52)">
<path fill-rule="evenodd" clip-rule="evenodd" d="M56.599 0H111.588L168.187 161.911H108.538L95.2559 109.114C106.456 104.671 114.376 93.7379 114.376 80.9556C114.376 64.2311 100.818 50.6732 84.0932 50.6732C67.3687 50.6732 53.8108 64.2311 53.8108 80.9556C53.8108 93.7379 61.7305 104.671 72.9307 109.114L59.6485 161.911H0L56.599 0Z" fill="#CECDC2"/>
<path d="M450.775 129.688L457.291 140.701H457.544L464.091 129.688H471.806L461.945 145.844L472.027 162H464.17L457.544 150.972H457.291L450.665 162H442.839L452.952 145.844L443.029 129.688H450.775Z" fill="#CECDC2"/>
<path d="M415.389 162V129.688H437.161V135.321H422.22V143.02H436.041V148.653H422.22V156.368H437.224V162H415.389Z" fill="#CECDC2"/>
<path d="M392.742 162H381.288V129.688H392.837C396.087 129.688 398.885 130.335 401.23 131.629C403.576 132.912 405.38 134.758 406.642 137.167C407.915 139.575 408.551 142.457 408.551 145.813C408.551 149.178 407.915 152.071 406.642 154.49C405.38 156.909 403.566 158.766 401.199 160.059C398.843 161.353 396.024 162 392.742 162ZM388.12 156.147H392.458C394.478 156.147 396.177 155.789 397.554 155.074C398.943 154.348 399.984 153.228 400.678 151.713C401.383 150.188 401.735 148.221 401.735 145.813C401.735 143.425 401.383 141.474 400.678 139.959C399.984 138.445 398.948 137.33 397.57 136.615C396.192 135.899 394.494 135.542 392.474 135.542H388.12V156.147Z" fill="#CECDC2"/>
<path d="M373.867 129.688V162H367.966L353.909 141.663H353.672V162H346.84V129.688H352.836L366.783 150.009H367.067V129.688H373.867Z" fill="#CECDC2"/>
<path d="M339.443 129.688V162H332.611V129.688H339.443Z" fill="#CECDC2"/>
<path d="M313.153 129.688V162H306.322V129.688H313.153Z" fill="#CECDC2"/>
<path d="M276.88 162H269.559L280.713 129.688H289.517L300.656 162H293.335L285.241 137.072H284.989L276.88 162ZM276.422 149.299H293.714V154.632H276.422V149.299Z" fill="#CECDC2"/>
<path d="M514.373 97.3767V65.0651H536.146V70.6975H521.205V78.3968H535.026V84.0292H521.205V91.7443H536.209V97.3767H514.373Z" fill="#CECDC2"/>
<path d="M507.697 76.3773H500.787C500.661 75.4832 500.403 74.6891 500.014 73.9949C499.625 73.2902 499.125 72.6907 498.515 72.1963C497.905 71.702 497.2 71.3233 496.401 71.0604C495.612 70.7974 494.755 70.6659 493.829 70.6659C492.157 70.6659 490.7 71.0814 489.459 71.9123C488.218 72.7328 487.255 73.9318 486.572 75.5095C485.888 77.0767 485.546 78.9805 485.546 81.2209C485.546 83.5243 485.888 85.4597 486.572 87.0269C487.266 88.5941 488.234 89.7774 489.475 90.5767C490.716 91.3761 492.152 91.7758 493.782 91.7758C494.697 91.7758 495.544 91.6548 496.322 91.4129C497.111 91.171 497.81 90.8187 498.42 90.3559C499.03 89.8825 499.535 89.3093 499.935 88.6361C500.345 87.963 500.629 87.1952 500.787 86.3327L507.697 86.3642C507.518 87.8473 507.071 89.2778 506.356 90.6556C505.652 92.023 504.7 93.2483 503.501 94.3317C502.312 95.4046 500.892 96.2565 499.241 96.8876C497.6 97.5082 495.743 97.8185 493.671 97.8185C490.789 97.8185 488.212 97.1663 485.941 95.8621C483.679 94.5578 481.891 92.6698 480.576 90.1981C479.272 87.7263 478.62 84.7339 478.62 81.2209C478.62 77.6973 479.283 74.6996 480.608 72.2279C481.933 69.7561 483.732 67.8734 486.004 66.5797C488.276 65.2754 490.831 64.6233 493.671 64.6233C495.544 64.6233 497.279 64.8862 498.878 65.4121C500.487 65.9381 501.912 66.7059 503.153 67.7156C504.395 68.7148 505.404 69.9402 506.183 71.3917C506.972 72.8432 507.476 74.5051 507.697 76.3773Z" fill="#CECDC2"/>
<path d="M448.255 97.3767V65.0651H461.003C463.443 65.0651 465.525 65.5016 467.25 66.3746C468.986 67.2371 470.306 68.4624 471.21 70.0506C472.125 71.6284 472.583 73.4848 472.583 75.62C472.583 77.7657 472.12 79.6116 471.195 81.1578C470.269 82.6934 468.928 83.8715 467.171 84.6919C465.425 85.5123 463.311 85.9225 460.829 85.9225H452.294V80.432H459.725C461.029 80.432 462.112 80.2532 462.975 79.8956C463.837 79.538 464.479 79.0016 464.9 78.2863C465.331 77.5711 465.546 76.6823 465.546 75.62C465.546 74.5471 465.331 73.6426 464.9 72.9063C464.479 72.17 463.832 71.6126 462.959 71.2339C462.096 70.8448 461.008 70.6502 459.693 70.6502H455.086V97.3767H448.255ZM465.704 82.6724L473.735 97.3767H466.193L458.336 82.6724H465.704Z" fill="#CECDC2"/>
<path d="M434.025 65.0651H440.857V86.0487C440.857 88.4048 440.294 90.4663 439.169 92.2334C438.054 94.0004 436.492 95.3783 434.483 96.367C432.474 97.3452 430.134 97.8342 427.462 97.8342C424.78 97.8342 422.434 97.3452 420.425 96.367C418.416 95.3783 416.855 94.0004 415.74 92.2334C414.625 90.4663 414.067 88.4048 414.067 86.0487V65.0651H420.899V85.4649C420.899 86.6956 421.167 87.7894 421.703 88.7466C422.25 89.7037 423.018 90.4558 424.007 91.0027C424.996 91.5497 426.147 91.8231 427.462 91.8231C428.787 91.8231 429.939 91.5497 430.917 91.0027C431.906 90.4558 432.668 89.7037 433.205 88.7466C433.752 87.7894 434.025 86.6956 434.025 85.4649V65.0651Z" fill="#CECDC2"/>
<path d="M407.23 81.2209C407.23 84.7444 406.562 87.7421 405.226 90.2139C403.901 92.6856 402.091 94.5736 399.799 95.8779C397.516 97.1716 394.95 97.8185 392.099 97.8185C389.228 97.8185 386.651 97.1663 384.368 95.8621C382.086 94.5578 380.282 92.6698 378.957 90.1981C377.632 87.7263 376.969 84.7339 376.969 81.2209C376.969 77.6973 377.632 74.6996 378.957 72.2279C380.282 69.7561 382.086 67.8734 384.368 66.5797C386.651 65.2754 389.228 64.6233 392.099 64.6233C394.95 64.6233 397.516 65.2754 399.799 66.5797C402.091 67.8734 403.901 69.7561 405.226 72.2279C406.562 74.6996 407.23 77.6973 407.23 81.2209ZM400.303 81.2209C400.303 78.9384 399.962 77.0136 399.278 75.4464C398.605 73.8792 397.653 72.6907 396.422 71.8808C395.192 71.0709 393.751 70.6659 392.099 70.6659C390.448 70.6659 389.007 71.0709 387.776 71.8808C386.546 72.6907 385.589 73.8792 384.905 75.4464C384.232 77.0136 383.895 78.9384 383.895 81.2209C383.895 83.5033 384.232 85.4281 384.905 86.9953C385.589 88.5625 386.546 89.7511 387.776 90.561C389.007 91.3709 390.448 91.7758 392.099 91.7758C393.751 91.7758 395.192 91.3709 396.422 90.561C397.653 89.7511 398.605 88.5625 399.278 86.9953C399.962 85.4281 400.303 83.5033 400.303 81.2209Z" fill="#CECDC2"/>
<path d="M364.175 74.3578C364.049 73.0851 363.507 72.0964 362.55 71.3917C361.593 70.687 360.294 70.3346 358.653 70.3346C357.538 70.3346 356.597 70.4924 355.829 70.8079C355.061 71.113 354.472 71.539 354.062 72.0859C353.662 72.6328 353.463 73.2534 353.463 73.9476C353.442 74.5261 353.563 75.031 353.826 75.4622C354.099 75.8934 354.472 76.2668 354.946 76.5824C355.419 76.8874 355.966 77.1556 356.587 77.387C357.207 77.6079 357.87 77.7972 358.574 77.955L361.477 78.6492C362.887 78.9647 364.181 79.3855 365.359 79.9114C366.537 80.4373 367.557 81.0841 368.419 81.852C369.282 82.6198 369.95 83.5243 370.423 84.5656C370.907 85.6069 371.154 86.8007 371.165 88.1471C371.154 90.1245 370.649 91.8389 369.65 93.2904C368.661 94.7314 367.231 95.8516 365.359 96.6509C363.497 97.4398 361.251 97.8342 358.622 97.8342C356.013 97.8342 353.741 97.4345 351.806 96.6352C349.881 95.8358 348.377 94.6525 347.294 93.0853C346.221 91.5076 345.658 89.5565 345.606 87.232H352.216C352.29 88.3153 352.6 89.2199 353.147 89.9456C353.705 90.6609 354.446 91.2026 355.372 91.5707C356.308 91.9283 357.365 92.1071 358.543 92.1071C359.7 92.1071 360.704 91.9388 361.556 91.6023C362.419 91.2657 363.087 90.7976 363.56 90.1981C364.033 89.5986 364.27 88.9096 364.27 88.1313C364.27 87.4055 364.054 86.7955 363.623 86.3011C363.202 85.8068 362.582 85.386 361.761 85.0389C360.952 84.6919 359.958 84.3763 358.78 84.0923L355.261 83.2088C352.537 82.5462 350.386 81.5101 348.808 80.1007C347.231 78.6913 346.447 76.7927 346.458 74.4051C346.447 72.4488 346.968 70.7396 348.02 69.2776C349.082 67.8155 350.539 66.6743 352.39 65.8539C354.241 65.0335 356.345 64.6233 358.701 64.6233C361.099 64.6233 363.192 65.0335 364.98 65.8539C366.779 66.6743 368.177 67.8155 369.177 69.2776C370.176 70.7396 370.691 72.433 370.723 74.3578H364.175Z" fill="#CECDC2"/>
<path d="M327.166 65.0651V97.3767H321.265L307.207 77.0399H306.971V97.3767H300.139V65.0651H306.135L320.082 85.3861H320.366V65.0651H327.166Z" fill="#CECDC2"/>
<path d="M271.158 97.3767V65.0651H292.931V70.6975H277.99V78.3968H291.811V84.0292H277.99V91.7443H292.994V97.3767H271.158Z" fill="#CECDC2"/>
<path d="M240.615 97.3767V65.0651H253.363C255.814 65.0651 257.902 65.5331 259.627 66.4692C261.352 67.3948 262.667 68.6833 263.571 70.3346C264.486 71.9755 264.944 73.8687 264.944 76.0144C264.944 78.1601 264.481 80.0534 263.555 81.6942C262.63 83.335 261.289 84.613 259.532 85.5281C257.786 86.4431 255.672 86.9007 253.19 86.9007H245.065V81.426H252.085C253.4 81.426 254.484 81.1999 255.336 80.7476C256.198 80.2848 256.84 79.6484 257.26 78.8385C257.692 78.0181 257.907 77.0768 257.907 76.0144C257.907 74.9416 257.692 74.0055 257.26 73.2061C256.84 72.3962 256.198 71.7704 255.336 71.3286C254.473 70.8763 253.379 70.6502 252.054 70.6502H247.447V97.3767H240.615Z" fill="#CECDC2"/>
<path d="M233.778 81.2209C233.778 84.7444 233.11 87.7421 231.774 90.2139C230.449 92.6856 228.64 94.5736 226.347 95.8779C224.064 97.1716 221.498 97.8185 218.648 97.8185C215.776 97.8185 213.199 97.1663 210.917 95.8621C208.634 94.5578 206.83 92.6698 205.505 90.1981C204.18 87.7263 203.517 84.7339 203.517 81.2209C203.517 77.6973 204.18 74.6996 205.505 72.2279C206.83 69.7561 208.634 67.8734 210.917 66.5797C213.199 65.2754 215.776 64.6233 218.648 64.6233C221.498 64.6233 224.064 65.2754 226.347 66.5797C228.64 67.8734 230.449 69.7561 231.774 72.2279C233.11 74.6996 233.778 77.6973 233.778 81.2209ZM226.852 81.2209C226.852 78.9384 226.51 77.0136 225.826 75.4464C225.153 73.8792 224.201 72.6907 222.97 71.8808C221.74 71.0709 220.299 70.6659 218.648 70.6659C216.996 70.6659 215.555 71.0709 214.325 71.8808C213.094 72.6907 212.137 73.8792 211.453 75.4464C210.78 77.0136 210.443 78.9384 210.443 81.2209C210.443 83.5033 210.78 85.4281 211.453 86.9953C212.137 88.5625 213.094 89.7511 214.325 90.561C215.555 91.3709 216.996 91.7758 218.648 91.7758C220.299 91.7758 221.74 91.3709 222.97 90.561C224.201 89.7511 225.153 88.5625 225.826 86.9953C226.51 85.4281 226.852 83.5033 226.852 81.2209Z" fill="#CECDC2"/>
<path d="M496.106 0.441772V32.7534H490.205L476.148 12.4166H475.911V32.7534H469.08V0.441772H475.075L489.022 20.7628H489.306V0.441772H496.106Z" fill="#CECDC2"/>
<path d="M439.637 32.7534H432.317L443.471 0.441772H452.275L463.413 32.7534H456.093L447.999 7.82549H447.747L439.637 32.7534ZM439.18 20.0528H456.471V25.3855H439.18V20.0528Z" fill="#CECDC2"/>
<path d="M405.087 32.7534V0.441772H426.859V6.07422H411.918V13.7735H425.739V19.4059H411.918V27.121H426.923V32.7534H405.087Z" fill="#CECDC2"/>
<path d="M374.544 32.7534V0.441772H387.292C389.743 0.441772 391.831 0.909829 393.556 1.84594C395.281 2.77154 396.595 4.06 397.5 5.71135C398.415 7.35217 398.872 9.24544 398.872 11.3911C398.872 13.5368 398.41 15.4301 397.484 17.0709C396.558 18.7117 395.217 19.9897 393.461 20.9048C391.715 21.8198 389.601 22.2774 387.118 22.2774H378.993V16.8027H386.014C387.329 16.8027 388.412 16.5766 389.264 16.1243C390.127 15.6615 390.768 15.0251 391.189 14.2152C391.62 13.3948 391.836 12.4535 391.836 11.3911C391.836 10.3183 391.62 9.38217 391.189 8.58279C390.768 7.7729 390.127 7.14707 389.264 6.70531C388.402 6.25303 387.308 6.02689 385.982 6.02689H381.376V32.7534H374.544Z" fill="#CECDC2"/>
<path d="M367.706 16.5976C367.706 20.1212 367.038 23.1188 365.703 25.5906C364.377 28.0623 362.568 29.9503 360.275 31.2546C357.993 32.5483 355.426 33.1952 352.576 33.1952C349.705 33.1952 347.128 32.543 344.845 31.2388C342.563 29.9346 340.759 28.0466 339.434 25.5748C338.108 23.103 337.446 20.1106 337.446 16.5976C337.446 13.074 338.108 10.0764 339.434 7.6046C340.759 5.13284 342.563 3.2501 344.845 1.95637C347.128 0.652123 349.705 0 352.576 0C355.426 0 357.993 0.652123 360.275 1.95637C362.568 3.2501 364.377 5.13284 365.703 7.6046C367.038 10.0764 367.706 13.074 367.706 16.5976ZM360.78 16.5976C360.78 14.3152 360.438 12.3903 359.755 10.8231C359.082 9.25594 358.13 8.0674 356.899 7.2575C355.668 6.44761 354.227 6.04266 352.576 6.04266C350.925 6.04266 349.484 6.44761 348.253 7.2575C347.022 8.0674 346.065 9.25594 345.382 10.8231C344.708 12.3903 344.372 14.3152 344.372 16.5976C344.372 18.88 344.708 20.8048 345.382 22.372C346.065 23.9392 347.022 25.1278 348.253 25.9377C349.484 26.7476 350.925 27.1525 352.576 27.1525C354.227 27.1525 355.668 26.7476 356.899 25.9377C358.13 25.1278 359.082 23.9392 359.755 22.372C360.438 20.8048 360.78 18.88 360.78 16.5976Z" fill="#CECDC2"/>
<path d="M307.08 32.7534V0.441772H319.828C322.269 0.441772 324.351 0.878275 326.076 1.75128C327.812 2.61376 329.132 3.83912 330.036 5.42736C330.951 7.00508 331.409 8.86152 331.409 10.9967C331.409 13.1424 330.946 14.9883 330.02 16.5345C329.095 18.0701 327.754 19.2482 325.997 20.0686C324.251 20.889 322.137 21.2992 319.655 21.2992H311.119V15.8087H318.55C319.855 15.8087 320.938 15.6299 321.8 15.2723C322.663 14.9147 323.305 14.3783 323.725 13.663C324.157 12.9478 324.372 12.059 324.372 10.9967C324.372 9.92385 324.157 9.0193 323.725 8.28303C323.305 7.54676 322.658 6.9893 321.785 6.61065C320.922 6.22148 319.834 6.02689 318.519 6.02689H313.912V32.7534H307.08ZM324.53 18.0491L332.561 32.7534H325.019L317.162 18.0491H324.53Z" fill="#CECDC2"/>
<path d="M292.851 0.441772H299.683V21.4254C299.683 23.7815 299.12 25.843 297.994 27.6101C296.88 29.3771 295.318 30.755 293.309 31.7437C291.3 32.7219 288.959 33.211 286.288 33.211C283.606 33.211 281.26 32.7219 279.251 31.7437C277.242 30.755 275.68 29.3771 274.565 27.6101C273.45 25.843 272.893 23.7815 272.893 21.4254V0.441772H279.725V20.8417C279.725 22.0723 279.993 23.1662 280.529 24.1233C281.076 25.0805 281.844 25.8325 282.833 26.3794C283.821 26.9264 284.973 27.1999 286.288 27.1999C287.613 27.1999 288.765 26.9264 289.743 26.3794C290.732 25.8325 291.494 25.0805 292.031 24.1233C292.578 23.1662 292.851 22.0723 292.851 20.8417V0.441772Z" fill="#CECDC2"/>
<path d="M243.912 32.7534V0.441772H265.685V6.07422H250.744V13.7735H264.564V19.4059H250.744V27.121H265.748V32.7534H243.912Z" fill="#CECDC2"/>
</g>
<defs>
<clipPath id="clip0_64_52">
<rect width="533" height="162" fill="white"/>
</clipPath>
</defs>
</svg>
